<svg width="501" height="246" viewBox="0 0 501 246" fill="none" xmlns="http://www.w3.org/2000/svg">
<path fill-rule="evenodd" clip-rule="evenodd" d="M414 240.815L463.209 182L476.704 195.516H497V244H414V240.815Z" fill="#4F9FF5"/>
<path d="M2 1H1V2V45.8984V46.8984H2H26.8289V199.261H2H1V200.261V244V245H2H105.315H106.315V244V200.261V199.261H105.315H83.4479V148.583H103.67C110.291 148.583 115.944 149.321 120.649 150.773L120.655 150.775C125.459 152.225 129.487 154.494 132.763 157.571L132.769 157.576L132.775 157.582C136.044 160.549 138.651 164.457 140.579 169.341L140.583 169.353L140.589 169.365C142.631 174.162 144.147 179.927 145.126 186.676L145.127 186.689L145.13 186.702L155.001 244.169L155.143 245H155.986H228.373H229.38L229.373 243.993L229.044 196.902L229.037 195.909H228.044H208.247L200.058 165.215C197.842 156.083 194.561 148.608 190.182 142.832C186.284 137.596 181.829 133.548 176.814 130.716C182.601 127.939 187.809 124.894 192.433 121.578L192.444 121.57C197.567 117.788 201.865 113.458 205.329 108.579C208.911 103.691 211.591 98.1055 213.374 91.8339C215.272 85.5482 216.211 78.2663 216.211 70.0026C216.211 60.9221 214.317 52.2166 210.532 43.8953C206.854 35.4637 201.505 28.1132 194.494 21.8495C187.477 15.4736 178.862 10.4109 168.671 6.64895C158.451 2.87625 146.869 1 133.941 1H2ZM253.708 1H252.708V2V45.8984V46.8984H253.708H278.537V199.261H253.708H252.708V200.261V244V245H253.708H360.478H361.478V244V200.261V199.261H360.478H335.156V121.054L413.439 197.013V244V245H414.439H497.19H498.19V244V196.59V195.59H497.19H477.364L398.818 118.431L480.772 50.091H499H500V49.091V2V1H499H413.946H412.946V2V48.308L335.156 114.139V46.8984H360.478H361.478V45.8984V2V1H360.478H253.708Z" stroke="#EBE9E9" stroke-width="2"/>
</svg>
