<svg width="640" height="246" viewBox="0 0 640 246" fill="none" xmlns="http://www.w3.org/2000/svg">
<mask id="path-1-outside-1_447_672" maskUnits="userSpaceOnUse" x="0" y="3.87109" width="111" height="94" fill="black">
<rect fill="white" y="3.87109" width="111" height="94"/>
<path fill-rule="evenodd" clip-rule="evenodd" d="M108.552 17.4207L41.3238 93.0001L27.0808 47.2724H2V5.87109H108.552V17.4207Z"/>
</mask>
<path fill-rule="evenodd" clip-rule="evenodd" d="M108.552 17.4207L41.3238 93.0001L27.0808 47.2724H2V5.87109H108.552V17.4207Z" fill="#F34F3B"/>
<path d="M108.552 17.4207L110.047 18.7499L110.552 18.1815V17.4207H108.552ZM41.3238 93.0001L39.4143 93.5948L40.4666 96.9731L42.8182 94.3293L41.3238 93.0001ZM27.0808 47.2724L28.9903 46.6777L28.5526 45.2724H27.0808V47.2724ZM2 47.2724H0V49.2724H2V47.2724ZM2 5.87109V3.87109H0V5.87109H2ZM108.552 5.87109H110.552V3.87109H108.552V5.87109ZM107.058 16.0915L39.8295 91.6708L42.8182 94.3293L110.047 18.7499L107.058 16.0915ZM43.2334 92.4053L28.9903 46.6777L25.1713 47.8672L39.4143 93.5948L43.2334 92.4053ZM27.0808 45.2724H2V49.2724H27.0808V45.2724ZM4 47.2724V5.87109H0V47.2724H4ZM2 7.87109H108.552V3.87109H2V7.87109ZM106.552 5.87109V17.4207H110.552V5.87109H106.552Z" fill="#D3D3D3" mask="url(#path-1-outside-1_447_672)"/>
<path d="M549.897 5.34954C539.512 2.44864 528.636 1 517.272 1C505.907 1 495.03 2.44881 484.644 5.35005C474.271 8.24781 464.555 12.3371 455.5 17.6187L455.496 17.6214C446.551 22.9028 438.381 29.2713 430.984 36.7253L430.984 36.7257C423.695 44.0793 417.456 52.3129 412.266 61.424C407.076 70.4343 403.047 80.1657 400.179 90.6151C397.306 100.976 395.872 111.798 395.872 123.077C395.872 134.356 397.306 145.178 400.179 155.539C403.048 165.886 407.076 175.616 412.264 184.727L412.267 184.731C417.455 193.738 423.693 201.97 430.979 209.423L430.984 209.429L430.989 209.434C438.385 216.783 446.554 223.099 455.496 228.379L455.5 228.381C464.555 233.663 474.271 237.752 484.644 240.65C495.03 243.551 505.907 245 517.272 245C528.636 245 539.512 243.551 549.897 240.651C560.379 237.753 570.095 233.664 579.043 228.381C588.097 223.1 596.27 216.783 603.559 209.428C610.956 201.974 617.251 193.741 622.441 184.731C627.74 175.619 631.824 165.888 634.693 155.539L634.694 155.536C637.565 145.075 639 134.255 639 123.077C639 111.798 637.566 100.978 634.694 90.6175C631.825 80.1665 627.741 70.4338 622.441 61.4227C617.251 52.3111 610.956 44.0777 603.558 36.7246C596.27 29.2687 588.097 22.8997 579.043 17.6187C570.096 12.3359 560.379 8.24682 549.897 5.34954ZM549.897 5.34954C549.897 5.34947 549.897 5.34939 549.897 5.34932L549.63 6.31318L549.899 5.35005C549.899 5.34988 549.898 5.34971 549.897 5.34954ZM275.979 5.31318H274.979V6.31318V48.6747V49.6747H275.979H303.554L268.154 170.761L225.7 6.52503L225.506 5.7753H224.731H163.628H162.857L162.661 6.5206L119.395 170.783L84.1466 49.6747H108.767H109.767V48.6747V6.31318V5.31318H108.767H2H1V6.31318V48.6747V49.6747H2H26.3907L84.4857 240.133L84.7017 240.841H85.4422H155.744H156.514L156.711 240.096L194.169 98.0777L230.826 240.091L231.02 240.841H231.794H302.753H303.497L303.711 240.128L360.823 49.6747H382.582H383.582V48.6747V6.31318V5.31318H382.582H275.979ZM576.12 150.774L576.117 150.781C573.091 159.398 568.772 166.989 563.165 173.564C557.561 180.032 550.825 185.188 542.95 189.033C535.214 192.76 526.66 194.631 517.272 194.631C507.995 194.631 499.496 192.761 491.759 189.033C483.995 185.19 477.315 180.036 471.71 173.568C466.098 166.988 461.667 159.391 458.421 150.767C455.288 142.051 453.719 132.823 453.719 123.077C453.719 113.226 455.289 103.946 458.421 95.2312C461.668 86.5041 466.099 78.9094 471.707 72.4359L471.712 72.43C477.317 65.8603 483.995 60.7088 491.753 56.9696L491.763 56.965C499.5 53.1356 507.997 51.2151 517.272 51.2151C526.546 51.2151 535.044 53.1356 542.781 56.965L542.79 56.9696C550.549 60.7088 557.227 65.8603 562.831 72.43L562.837 72.4365L562.842 72.4429C568.557 78.9141 572.984 86.5045 576.12 95.2257C579.254 103.942 580.824 113.224 580.824 123.077C580.824 132.826 579.255 142.056 576.12 150.774Z" stroke="#EBE9E9" stroke-width="2"/>
</svg>
