<svg width="640" height="246" viewBox="0 0 640 246" fill="none" xmlns="http://www.w3.org/2000/svg">
<path d="M549.897 240.65C539.512 243.551 528.636 245 517.272 245C505.907 245 495.03 243.551 484.644 240.65C474.271 237.752 464.555 233.663 455.5 228.381L455.496 228.379C446.551 223.097 438.381 216.729 430.984 209.275L430.984 209.274C423.695 201.921 417.456 193.687 412.266 184.576C407.076 175.566 403.047 165.834 400.179 155.385C397.306 145.024 395.872 134.202 395.872 122.923C395.872 111.644 397.306 100.822 400.179 90.461C403.048 80.114 407.076 70.384 412.264 61.2734L412.267 61.2691C417.455 52.2618 423.693 44.0305 430.979 36.5766L430.984 36.5714L430.989 36.5663C438.385 29.2167 446.554 22.9013 455.496 17.6214L455.5 17.6187C464.555 12.3371 474.271 8.24782 484.644 5.35007C495.03 2.44882 505.907 1 517.272 1C528.636 1 539.512 2.44853 549.897 5.34933C560.379 8.24663 570.095 12.3357 579.043 17.6187C588.097 22.8996 596.27 29.2175 603.559 36.5716C610.956 44.0263 617.251 52.2592 622.441 61.2691C627.74 70.3806 631.824 80.1121 634.693 90.461L634.694 90.4635C637.565 100.925 639 111.745 639 122.923C639 134.202 637.566 145.022 634.694 155.382C631.825 165.834 627.741 175.566 622.441 184.577C617.251 193.689 610.956 201.922 603.558 209.275C596.27 216.731 588.097 223.1 579.043 228.381C570.096 233.664 560.379 237.753 549.897 240.65ZM549.897 240.65C549.897 240.651 549.897 240.651 549.897 240.651L549.63 239.687L549.899 240.65C549.899 240.65 549.898 240.65 549.897 240.65ZM275.979 240.687H274.979V239.687V197.325V196.325H275.979H303.554L268.154 75.2394L225.7 239.475L225.506 240.225H224.731H163.628H162.857L162.661 239.479L119.395 75.2165L84.1466 196.325H108.767H109.767V197.325V239.687V240.687H108.767H2H1V239.687V197.325V196.325H2H26.3907L84.4857 5.8674L84.7017 5.15915H85.4422H155.744H156.514L156.711 5.90411L194.169 147.922L230.826 5.90923L231.02 5.15915H231.794H302.753H303.497L303.711 5.87192L360.823 196.325H382.582H383.582V197.325V239.687V240.687H382.582H275.979ZM576.12 95.2257L576.117 95.2188C573.091 86.602 568.772 79.0109 563.165 72.4358C557.561 65.9675 550.825 60.8121 542.95 56.9674C535.214 53.2401 526.66 51.3692 517.272 51.3692C507.995 51.3692 499.496 53.2392 491.759 56.9669C483.995 60.8102 477.315 65.9643 471.71 72.4325C466.098 79.0119 461.667 86.6093 458.421 95.2331C455.288 103.949 453.719 113.177 453.719 122.923C453.719 132.774 455.289 142.054 458.421 150.769C461.668 159.496 466.099 167.091 471.707 173.564L471.712 173.57C477.317 180.14 483.995 185.291 491.753 189.03L491.763 189.035C499.5 192.864 507.997 194.785 517.272 194.785C526.546 194.785 535.044 192.864 542.781 189.035L542.79 189.03C550.549 185.291 557.227 180.14 562.831 173.57L562.837 173.563L562.842 173.557C568.557 167.086 572.984 159.496 576.12 150.774C579.254 142.058 580.824 132.776 580.824 122.923C580.824 113.174 579.255 103.944 576.12 95.2257Z" stroke="url(#paint0_linear_345_645)" stroke-width="2"/>
<defs>
<linearGradient id="paint0_linear_345_645" x1="320" y1="244" x2="320" y2="2" gradientUnits="userSpaceOnUse">
<stop stop-color="#EAEAEA"/>
<stop offset="1" stop-color="#D7D7D7" stop-opacity="0"/>
</linearGradient>
</defs>
</svg>
