<svg width="195" height="50" viewBox="0 0 205 59" fill="none" xmlns="http://www.w3.org/2000/svg">
<mask id="path-1-outside-1_441_673" maskUnits="userSpaceOnUse" x="0.382812" y="0.335938" width="205" height="59" fill="black">
<rect fill="white" x="0.382812" y="0.335938" width="205" height="59"/>
<path d="M68.0234 22.1953C68.0234 22.4036 65.4193 27.9766 60.2109 38.9141C58.4661 42.7161 55.7969 48.3932 52.2031 55.9453C51.8646 56.6484 51.513 57 51.1484 57H44.1172C43.6224 57 43.2188 56.6484 42.9062 55.9453C40.9792 51.4141 38.2057 44.2786 34.5859 34.5391C32.7891 39.3307 29.9896 46.4661 26.1875 55.9453C25.901 56.6484 25.5104 57 25.0156 57H18.0234C17.6328 57 17.2682 56.6484 16.9297 55.9453C15.1328 52.1693 12.4375 46.4922 8.84375 38.9141C3.86979 28.5495 1.38281 22.9766 1.38281 22.1953C1.38281 20.0599 1.44792 16.8438 1.57812 12.5469C1.70833 8.25 1.77344 5.03385 1.77344 2.89844C1.77344 2.42969 2.09896 2.19531 2.75 2.19531C3.21875 2.19531 3.92188 2.23438 4.85938 2.3125C5.82292 2.39062 6.53906 2.42969 7.00781 2.42969C7.45052 2.42969 8.11458 2.40365 9 2.35156C9.88542 2.29948 10.5495 2.27344 10.9922 2.27344C11.5391 2.27344 11.8125 2.46875 11.8125 2.85938C11.8125 4.96875 11.6823 8.15885 11.4219 12.4297C11.1875 16.6745 11.0703 19.8516 11.0703 21.9609C11.0703 23.2891 13.7005 29.3047 18.9609 40.0078C20.7057 43.5495 21.6562 45.3203 21.8125 45.3203C21.8646 45.2943 21.9297 45.2031 22.0078 45.0469C22.3203 44.4479 22.9844 42.7812 24 40.0469C25.875 34.9688 27.8021 29.2005 29.7812 22.7422C29.8594 22.0911 29.8984 20.0339 29.8984 16.5703C29.8984 15.0339 29.8464 12.7422 29.7422 9.69531C29.6641 6.6224 29.625 4.31771 29.625 2.78125C29.625 2.39062 29.8984 2.19531 30.4453 2.19531C30.9401 2.19531 31.6823 2.23438 32.6719 2.3125C33.6615 2.39062 34.4167 2.42969 34.9375 2.42969C35.3802 2.42969 36.0443 2.39062 36.9297 2.3125C37.8151 2.23438 38.4792 2.19531 38.9219 2.19531C39.5208 2.19531 39.8203 2.40365 39.8203 2.82031C39.8203 4.46094 39.7682 6.9349 39.6641 10.2422C39.5599 13.5234 39.5078 15.9844 39.5078 17.625C39.5078 20.3073 39.5208 21.9349 39.5469 22.5078C39.625 23.8099 41.5911 29.526 45.4453 39.6562C45.862 40.8021 46.5391 42.4427 47.4766 44.5781C47.5026 44.6823 47.5547 44.7734 47.6328 44.8516C47.7891 44.8516 48.7135 43.1198 50.4062 39.6562C55.5365 29.1615 58.1016 23.237 58.1016 21.8828C58.1016 19.7474 57.9844 16.5573 57.75 12.3125C57.5156 8.06771 57.3984 4.89062 57.3984 2.78125C57.3984 2.39062 57.5026 2.19531 57.7109 2.19531C58.2318 2.19531 59 2.23438 60.0156 2.3125C61.0573 2.39062 61.8385 2.42969 62.3594 2.42969C62.8281 2.42969 63.5443 2.39062 64.5078 2.3125C65.4714 2.23438 66.2005 2.19531 66.6953 2.19531C67.2422 2.19531 67.5547 2.35156 67.6328 2.66406C67.6328 2.63802 67.6328 3.0026 67.6328 3.75781C67.6328 5.8151 67.6979 8.88802 67.8281 12.9766C67.9583 17.0651 68.0234 20.138 68.0234 22.1953Z"/>
<path d="M109.781 37.9766C109.781 43.4193 107.997 48.0677 104.43 51.9219C100.784 55.9062 96.2656 57.8984 90.875 57.8984C85.4583 57.8984 80.9271 55.9193 77.2812 51.9609C73.7135 48.1328 71.9297 43.4974 71.9297 38.0547C71.9297 32.612 73.7135 27.9766 77.2812 24.1484C80.9531 20.2422 85.4844 18.2891 90.875 18.2891C96.2396 18.2891 100.745 20.2422 104.391 24.1484C107.984 27.9505 109.781 32.5599 109.781 37.9766ZM101.539 38.0547C101.539 34.8776 100.562 32.1693 98.6094 29.9297C96.5781 27.5599 94 26.375 90.875 26.375C87.75 26.375 85.1589 27.5469 83.1016 29.8906C81.1484 32.1562 80.1719 34.8776 80.1719 38.0547C80.1719 41.1797 81.1615 43.888 83.1406 46.1797C85.224 48.6016 87.8021 49.8125 90.875 49.8125C93.974 49.8125 96.5521 48.6016 98.6094 46.1797C100.562 43.888 101.539 41.1797 101.539 38.0547Z"/>
<path d="M137.672 20.3203C137.672 23.1849 137.477 25.7891 137.086 28.1328C137.008 28.7318 136.747 29.0312 136.305 29.0312C135.758 29.0312 134.924 28.9792 133.805 28.875C132.711 28.7448 131.878 28.6797 131.305 28.6797C128.023 28.6797 125.927 29.6042 125.016 31.4531C124.469 32.5729 124.195 34.9036 124.195 38.4453V42.7422C124.195 44.2005 124.247 46.4141 124.352 49.3828C124.482 52.3516 124.547 54.5651 124.547 56.0234C124.547 56.7266 124.247 57.0781 123.648 57.0781C122.841 57.0781 121.617 57.0651 119.977 57.0391C118.336 57.013 117.112 57 116.305 57C115.706 57 115.406 56.6745 115.406 56.0234C115.406 53.9141 115.432 50.737 115.484 46.4922C115.562 42.2474 115.602 39.0573 115.602 36.9219C115.602 30.4896 115.003 25.3203 113.805 21.4141C113.753 21.2057 113.727 21.0495 113.727 20.9453C113.727 20.6328 113.896 20.4115 114.234 20.2812C115.198 20.1771 116.552 20.0208 118.297 19.8125C121.109 19.2917 122.411 19.0312 122.203 19.0312C122.62 19.0312 122.893 19.7995 123.023 21.3359C123.154 22.8724 123.388 23.6406 123.727 23.6406C123.779 23.6406 123.844 23.6146 123.922 23.5625C124.99 22.8854 126.057 22.2083 127.125 21.5312C128.297 20.8281 129.495 20.3073 130.719 19.9688C131.734 19.6562 133.036 19.5 134.625 19.5C136.656 19.5 137.672 19.7734 137.672 20.3203Z"/>
<path d="M180.367 30.2031C180.367 36.974 177.229 41.5052 170.953 43.7969C170.953 45.125 172.255 47.5339 174.859 51.0234C177.464 54.487 178.766 56.2188 178.766 56.2188C178.766 56.6094 177.464 56.8698 174.859 57C173.141 57.0781 171.852 57.1172 170.992 57.1172C169.143 57.1172 167.984 56.7266 167.516 55.9453C166.292 53.862 164.365 50.8281 161.734 46.8438C161.422 46.375 158.596 46.1797 153.258 46.2578L151.734 46.2969V55.9453C151.734 56.7526 151.448 57.1562 150.875 57.1562C150.042 57.1562 148.805 57.1432 147.164 57.1172C145.549 57.0911 144.326 57.0781 143.492 57.0781C142.919 57.0781 142.633 56.5703 142.633 55.5547V31.2578C142.633 28.0807 142.503 23.3281 142.242 17C142.008 10.6719 141.891 5.91927 141.891 2.74219C141.891 2.27344 142.138 2.01302 142.633 1.96094C143.492 1.9349 144.794 1.88281 146.539 1.80469C146.904 1.77865 147.672 1.6875 148.844 1.53125C149.781 1.40104 150.536 1.33594 151.109 1.33594C151.474 1.33594 151.656 1.64844 151.656 2.27344C151.656 3.67969 151.591 5.77604 151.461 8.5625C151.331 11.349 151.266 13.4453 151.266 14.8516V24.9297C151.266 25.4766 151.383 25.75 151.617 25.75C152.242 25.2292 153.18 24.4609 154.43 23.4453C158.805 20.0599 162.971 18.3672 166.93 18.3672C170.784 18.3672 173.935 19.3568 176.383 21.3359C179.039 23.4974 180.367 26.4531 180.367 30.2031ZM170.953 32.0391C170.953 28.3151 168.544 26.4531 163.727 26.4531C160.133 26.4531 156.083 28.849 151.578 33.6406V39.4609C153.688 39.8516 156.24 40.0469 159.234 40.0469C162.255 40.0469 164.833 39.474 166.969 38.3281C169.625 36.8958 170.953 34.7995 170.953 32.0391Z"/>
<path d="M204 44.9688C204 48.849 202.451 51.9609 199.352 54.3047C196.539 56.4401 193.115 57.5078 189.078 57.5078C187.516 57.5078 186.63 57.4688 186.422 57.3906C185.979 57.1823 185.758 56.5443 185.758 55.4766C185.758 54.9036 185.68 54.0443 185.523 52.8984C185.393 51.7526 185.328 50.9062 185.328 50.3594C185.328 50.0208 185.562 49.7995 186.031 49.6953C186.37 49.6172 186.852 49.6172 187.477 49.6953C188.284 49.7734 188.674 49.8125 188.648 49.8125C193.57 49.8125 196.031 48.3021 196.031 45.2812C196.031 43.849 194.951 42.5339 192.789 41.3359C189.273 39.4089 187.255 38.224 186.734 37.7812C184.573 35.9323 183.492 33.5104 183.492 30.5156C183.492 26.6094 184.964 23.5625 187.906 21.375C190.562 19.4219 193.922 18.4453 197.984 18.4453C198.349 18.4453 198.609 18.6146 198.766 18.9531C198.948 19.2917 199.273 20.3464 199.742 22.1172C200.237 23.888 200.484 24.9557 200.484 25.3203C200.484 25.6068 200.237 25.7891 199.742 25.8672C198.076 26.1016 196.396 26.3229 194.703 26.5312C192.698 27.0781 191.695 28.1719 191.695 29.8125C191.695 30.9844 192.75 32.1693 194.859 33.3672C197.984 35.112 199.964 36.375 200.797 37.1562C202.932 39.1875 204 41.7917 204 44.9688Z"/>
</mask>
<path d="M68.0234 22.1953C68.0234 22.4036 65.4193 27.9766 60.2109 38.9141C58.4661 42.7161 55.7969 48.3932 52.2031 55.9453C51.8646 56.6484 51.513 57 51.1484 57H44.1172C43.6224 57 43.2188 56.6484 42.9062 55.9453C40.9792 51.4141 38.2057 44.2786 34.5859 34.5391C32.7891 39.3307 29.9896 46.4661 26.1875 55.9453C25.901 56.6484 25.5104 57 25.0156 57H18.0234C17.6328 57 17.2682 56.6484 16.9297 55.9453C15.1328 52.1693 12.4375 46.4922 8.84375 38.9141C3.86979 28.5495 1.38281 22.9766 1.38281 22.1953C1.38281 20.0599 1.44792 16.8438 1.57812 12.5469C1.70833 8.25 1.77344 5.03385 1.77344 2.89844C1.77344 2.42969 2.09896 2.19531 2.75 2.19531C3.21875 2.19531 3.92188 2.23438 4.85938 2.3125C5.82292 2.39062 6.53906 2.42969 7.00781 2.42969C7.45052 2.42969 8.11458 2.40365 9 2.35156C9.88542 2.29948 10.5495 2.27344 10.9922 2.27344C11.5391 2.27344 11.8125 2.46875 11.8125 2.85938C11.8125 4.96875 11.6823 8.15885 11.4219 12.4297C11.1875 16.6745 11.0703 19.8516 11.0703 21.9609C11.0703 23.2891 13.7005 29.3047 18.9609 40.0078C20.7057 43.5495 21.6562 45.3203 21.8125 45.3203C21.8646 45.2943 21.9297 45.2031 22.0078 45.0469C22.3203 44.4479 22.9844 42.7812 24 40.0469C25.875 34.9688 27.8021 29.2005 29.7812 22.7422C29.8594 22.0911 29.8984 20.0339 29.8984 16.5703C29.8984 15.0339 29.8464 12.7422 29.7422 9.69531C29.6641 6.6224 29.625 4.31771 29.625 2.78125C29.625 2.39062 29.8984 2.19531 30.4453 2.19531C30.9401 2.19531 31.6823 2.23438 32.6719 2.3125C33.6615 2.39062 34.4167 2.42969 34.9375 2.42969C35.3802 2.42969 36.0443 2.39062 36.9297 2.3125C37.8151 2.23438 38.4792 2.19531 38.9219 2.19531C39.5208 2.19531 39.8203 2.40365 39.8203 2.82031C39.8203 4.46094 39.7682 6.9349 39.6641 10.2422C39.5599 13.5234 39.5078 15.9844 39.5078 17.625C39.5078 20.3073 39.5208 21.9349 39.5469 22.5078C39.625 23.8099 41.5911 29.526 45.4453 39.6562C45.862 40.8021 46.5391 42.4427 47.4766 44.5781C47.5026 44.6823 47.5547 44.7734 47.6328 44.8516C47.7891 44.8516 48.7135 43.1198 50.4062 39.6562C55.5365 29.1615 58.1016 23.237 58.1016 21.8828C58.1016 19.7474 57.9844 16.5573 57.75 12.3125C57.5156 8.06771 57.3984 4.89062 57.3984 2.78125C57.3984 2.39062 57.5026 2.19531 57.7109 2.19531C58.2318 2.19531 59 2.23438 60.0156 2.3125C61.0573 2.39062 61.8385 2.42969 62.3594 2.42969C62.8281 2.42969 63.5443 2.39062 64.5078 2.3125C65.4714 2.23438 66.2005 2.19531 66.6953 2.19531C67.2422 2.19531 67.5547 2.35156 67.6328 2.66406C67.6328 2.63802 67.6328 3.0026 67.6328 3.75781C67.6328 5.8151 67.6979 8.88802 67.8281 12.9766C67.9583 17.0651 68.0234 20.138 68.0234 22.1953Z" stroke="black" stroke-width="2" mask="url(#path-1-outside-1_441_673)"/>
<path d="M109.781 37.9766C109.781 43.4193 107.997 48.0677 104.43 51.9219C100.784 55.9062 96.2656 57.8984 90.875 57.8984C85.4583 57.8984 80.9271 55.9193 77.2812 51.9609C73.7135 48.1328 71.9297 43.4974 71.9297 38.0547C71.9297 32.612 73.7135 27.9766 77.2812 24.1484C80.9531 20.2422 85.4844 18.2891 90.875 18.2891C96.2396 18.2891 100.745 20.2422 104.391 24.1484C107.984 27.9505 109.781 32.5599 109.781 37.9766ZM101.539 38.0547C101.539 34.8776 100.562 32.1693 98.6094 29.9297C96.5781 27.5599 94 26.375 90.875 26.375C87.75 26.375 85.1589 27.5469 83.1016 29.8906C81.1484 32.1562 80.1719 34.8776 80.1719 38.0547C80.1719 41.1797 81.1615 43.888 83.1406 46.1797C85.224 48.6016 87.8021 49.8125 90.875 49.8125C93.974 49.8125 96.5521 48.6016 98.6094 46.1797C100.562 43.888 101.539 41.1797 101.539 38.0547Z" stroke="black" stroke-width="2" mask="url(#path-1-outside-1_441_673)"/>
<path d="M137.672 20.3203C137.672 23.1849 137.477 25.7891 137.086 28.1328C137.008 28.7318 136.747 29.0312 136.305 29.0312C135.758 29.0312 134.924 28.9792 133.805 28.875C132.711 28.7448 131.878 28.6797 131.305 28.6797C128.023 28.6797 125.927 29.6042 125.016 31.4531C124.469 32.5729 124.195 34.9036 124.195 38.4453V42.7422C124.195 44.2005 124.247 46.4141 124.352 49.3828C124.482 52.3516 124.547 54.5651 124.547 56.0234C124.547 56.7266 124.247 57.0781 123.648 57.0781C122.841 57.0781 121.617 57.0651 119.977 57.0391C118.336 57.013 117.112 57 116.305 57C115.706 57 115.406 56.6745 115.406 56.0234C115.406 53.9141 115.432 50.737 115.484 46.4922C115.562 42.2474 115.602 39.0573 115.602 36.9219C115.602 30.4896 115.003 25.3203 113.805 21.4141C113.753 21.2057 113.727 21.0495 113.727 20.9453C113.727 20.6328 113.896 20.4115 114.234 20.2812C115.198 20.1771 116.552 20.0208 118.297 19.8125C121.109 19.2917 122.411 19.0312 122.203 19.0312C122.62 19.0312 122.893 19.7995 123.023 21.3359C123.154 22.8724 123.388 23.6406 123.727 23.6406C123.779 23.6406 123.844 23.6146 123.922 23.5625C124.99 22.8854 126.057 22.2083 127.125 21.5312C128.297 20.8281 129.495 20.3073 130.719 19.9688C131.734 19.6562 133.036 19.5 134.625 19.5C136.656 19.5 137.672 19.7734 137.672 20.3203Z" stroke="black" stroke-width="2" mask="url(#path-1-outside-1_441_673)"/>
<path d="M180.367 30.2031C180.367 36.974 177.229 41.5052 170.953 43.7969C170.953 45.125 172.255 47.5339 174.859 51.0234C177.464 54.487 178.766 56.2188 178.766 56.2188C178.766 56.6094 177.464 56.8698 174.859 57C173.141 57.0781 171.852 57.1172 170.992 57.1172C169.143 57.1172 167.984 56.7266 167.516 55.9453C166.292 53.862 164.365 50.8281 161.734 46.8438C161.422 46.375 158.596 46.1797 153.258 46.2578L151.734 46.2969V55.9453C151.734 56.7526 151.448 57.1562 150.875 57.1562C150.042 57.1562 148.805 57.1432 147.164 57.1172C145.549 57.0911 144.326 57.0781 143.492 57.0781C142.919 57.0781 142.633 56.5703 142.633 55.5547V31.2578C142.633 28.0807 142.503 23.3281 142.242 17C142.008 10.6719 141.891 5.91927 141.891 2.74219C141.891 2.27344 142.138 2.01302 142.633 1.96094C143.492 1.9349 144.794 1.88281 146.539 1.80469C146.904 1.77865 147.672 1.6875 148.844 1.53125C149.781 1.40104 150.536 1.33594 151.109 1.33594C151.474 1.33594 151.656 1.64844 151.656 2.27344C151.656 3.67969 151.591 5.77604 151.461 8.5625C151.331 11.349 151.266 13.4453 151.266 14.8516V24.9297C151.266 25.4766 151.383 25.75 151.617 25.75C152.242 25.2292 153.18 24.4609 154.43 23.4453C158.805 20.0599 162.971 18.3672 166.93 18.3672C170.784 18.3672 173.935 19.3568 176.383 21.3359C179.039 23.4974 180.367 26.4531 180.367 30.2031ZM170.953 32.0391C170.953 28.3151 168.544 26.4531 163.727 26.4531C160.133 26.4531 156.083 28.849 151.578 33.6406V39.4609C153.688 39.8516 156.24 40.0469 159.234 40.0469C162.255 40.0469 164.833 39.474 166.969 38.3281C169.625 36.8958 170.953 34.7995 170.953 32.0391Z" stroke="black" stroke-width="2" mask="url(#path-1-outside-1_441_673)"/>
<path d="M204 44.9688C204 48.849 202.451 51.9609 199.352 54.3047C196.539 56.4401 193.115 57.5078 189.078 57.5078C187.516 57.5078 186.63 57.4688 186.422 57.3906C185.979 57.1823 185.758 56.5443 185.758 55.4766C185.758 54.9036 185.68 54.0443 185.523 52.8984C185.393 51.7526 185.328 50.9062 185.328 50.3594C185.328 50.0208 185.562 49.7995 186.031 49.6953C186.37 49.6172 186.852 49.6172 187.477 49.6953C188.284 49.7734 188.674 49.8125 188.648 49.8125C193.57 49.8125 196.031 48.3021 196.031 45.2812C196.031 43.849 194.951 42.5339 192.789 41.3359C189.273 39.4089 187.255 38.224 186.734 37.7812C184.573 35.9323 183.492 33.5104 183.492 30.5156C183.492 26.6094 184.964 23.5625 187.906 21.375C190.562 19.4219 193.922 18.4453 197.984 18.4453C198.349 18.4453 198.609 18.6146 198.766 18.9531C198.948 19.2917 199.273 20.3464 199.742 22.1172C200.237 23.888 200.484 24.9557 200.484 25.3203C200.484 25.6068 200.237 25.7891 199.742 25.8672C198.076 26.1016 196.396 26.3229 194.703 26.5312C192.698 27.0781 191.695 28.1719 191.695 29.8125C191.695 30.9844 192.75 32.1693 194.859 33.3672C197.984 35.112 199.964 36.375 200.797 37.1562C202.932 39.1875 204 41.7917 204 44.9688Z" stroke="black" stroke-width="2" mask="url(#path-1-outside-1_441_673)"/>
</svg>
