<svg width="501" height="246" viewBox="0 0 501 246" fill="none" xmlns="http://www.w3.org/2000/svg">
<path d="M2 245H1V244V200.102V199.102H2H26.8289V46.7388H2H1V45.7388V2V1H2H105.315H106.315V2V45.7388V46.7388H105.315H83.4479V97.4169H103.67C110.291 97.4169 115.944 96.6792 120.649 95.2265L120.655 95.2247C125.459 93.7747 129.487 91.5056 132.763 88.4293L132.769 88.4235L132.775 88.4178C136.044 85.4509 138.651 81.5427 140.579 76.6592L140.583 76.6469L140.589 76.6347C142.631 71.838 144.147 66.0726 145.126 59.3236L145.127 59.3106L145.13 59.2977L155.001 1.83072L155.143 1H155.986H228.373H229.38L229.373 2.00699L229.044 49.098L229.037 50.091H228.044H208.247L200.058 80.7852C197.842 89.9173 194.561 97.3922 190.182 103.168C186.284 108.404 181.829 112.452 176.814 115.284C182.601 118.061 187.809 121.106 192.433 124.422L192.444 124.43C197.567 128.212 201.865 132.542 205.329 137.421C208.911 142.309 211.591 147.895 213.374 154.166C215.272 160.452 216.211 167.734 216.211 175.997C216.211 185.078 214.317 193.783 210.532 202.105C206.854 210.536 201.505 217.887 194.494 224.15C187.477 230.526 178.862 235.589 168.671 239.351C158.451 243.124 146.869 245 133.941 245H2ZM253.708 245H252.708V244V200.102V199.102H253.708H278.537V46.7388H253.708H252.708V45.7388V2V1H253.708H360.478H361.478V2V45.7388V46.7388H360.478H335.156V124.946L413.439 48.9872V2V1H414.439H497.19H498.19V2V49.4103V50.4103H497.19H477.364L398.818 127.569L480.772 195.909H499H500V196.909V244V245H499H413.946H412.946V244V197.692L335.156 131.861V199.102H360.478H361.478V200.102V244V245H360.478H253.708Z" stroke="url(#paint0_linear_345_647)" stroke-width="2"/>
<defs>
<linearGradient id="paint0_linear_345_647" x1="250.5" y1="244" x2="250.5" y2="2" gradientUnits="userSpaceOnUse">
<stop stop-color="#D7D7D7" stop-opacity="0"/>
<stop offset="1" stop-color="#EEEEEE"/>
</linearGradient>
</defs>
</svg>
