<svg width="148" height="140" viewBox="0 0 148 140" fill="none" xmlns="http://www.w3.org/2000/svg">
<path d="M127.995 106.87C142.335 142.119 105.112 121.83 80.8958 125.053C61.0806 128.963 30.5177 157.187 34.0601 119.37C35.0783 108.5 43.0649 99.1112 49.8624 90.0288C57.259 80.146 61.8129 71.4196 74.432 69.7403C87.0511 68.061 94.4316 75.1993 104.658 82.7371C114.056 89.6642 123.167 95 127.995 106.87Z" fill="black"/>
<path d="M34.5358 70.9366C40.0476 78.863 41.3748 88.3016 34.481 94.9142C27.5872 101.527 20.7123 97.4097 15.2004 89.4833C9.68863 81.5568 3.54445 66.9512 10.4382 60.3386C17.332 53.726 29.024 63.0101 34.5358 70.9366Z" fill="black"/>
<path d="M9.72677 74.6173C6.1512 65.1458 13.9999 43.0001 13.9999 43.0001C13.9999 43.0001 15.2697 58.155 19 63.0001C22.7304 67.8452 26.4817 67.4147 26.4817 67.4147C26.4817 67.4147 13.3024 84.0889 9.72677 74.6173Z" fill="black"/>
<path d="M68.5634 44.2976C72.5836 55.3721 71.0286 65.9342 60.4629 69.4118C49.8972 72.8894 41.87 61.1809 37.8498 50.1064C33.8296 39.0319 32.3608 24.582 42.9265 21.1044C53.4922 17.6268 64.5432 33.2231 68.5634 44.2976Z" fill="black"/>
<path d="M36 34C36 23.6628 46.2389 6 46.2389 6C46.2389 6 46.8353 20.4446 48 26.5C49.1647 32.5554 52.2035 37.0115 52.2035 37.0115C52.2035 37.0115 36 44.3372 36 34Z" fill="black"/>
<path d="M80.0954 40.0626C77.7468 52.1269 80.6938 63.3561 91.3405 66.5363C101.987 69.7166 107.608 61.0468 109.957 48.9825C112.306 36.9181 112.232 17.0914 101.585 13.9111C90.9387 10.7308 82.4441 27.9982 80.0954 40.0626Z" fill="black"/>
<path d="M106.849 30.9565C104.932 18.0533 93.6398 1.45682 93.6398 1.45682C93.6398 1.45682 94.4141 19.0768 93.6397 26.9565C92.8654 34.8361 89.6742 41.2687 89.6742 41.2687C89.6742 41.2687 108.767 43.8598 106.849 30.9565Z" fill="black"/>
<path d="M119.02 58.2322C114.841 65.6363 114.428 73.9827 120.959 79.1277C127.489 84.2727 133.157 80.0667 137.337 72.6626C141.516 65.2586 145.72 51.9758 139.19 46.8308C132.659 41.6858 123.2 50.8282 119.02 58.2322Z" fill="black"/>
<path d="M140 59.0737C142.446 49.7157 136.777 32.722 136.777 32.722C136.777 32.722 134.447 46.2926 131.884 51.4381C129.321 56.5836 123.653 59.0739 123.653 59.0739C123.653 59.0739 137.553 68.4318 140 59.0737Z" fill="black"/>
</svg>
